TITLE ""
FILE "2Q_t_0801-0817.mp3" MP3
  TRACK 01 AUDIO
    TITLE "2Q_t_0801-0817_01"
    INDEX 01 00:00:00
  TRACK 02 AUDIO
    TITLE "2Q_t_0801-0817_02"
    INDEX 01 00:00:12
  TRACK 03 AUDIO
    TITLE "2Q_t_0801-0817_03"
    INDEX 01 00:01:41
  TRACK 04 AUDIO
    TITLE "2Q_t_0801-0817_04"
    INDEX 01 00:02:17
  TRACK 05 AUDIO
    TITLE "2Q_t_0801-0817_05"
    INDEX 01 00:03:24
  TRACK 06 AUDIO
    TITLE "2Q_t_0801-0817_06"
    INDEX 01 00:03:67
  TRACK 07 AUDIO
    TITLE "2Q_t_0801-0817_07"
    INDEX 01 00:05:17
  TRACK 08 AUDIO
    TITLE "2Q_t_0801-0817_08"
    INDEX 01 00:05:66
  TRACK 09 AUDIO
    TITLE "2Q_t_0801-0817_09"
    INDEX 01 00:09:01
  TRACK 10 AUDIO
    TITLE "2Q_t_0801-0817_10"
    INDEX 01 00:09:45
  TRACK 11 AUDIO
    TITLE "2Q_t_0801-0817_11"
    INDEX 01 00:11:14
  TRACK 12 AUDIO
    TITLE "2Q_t_0801-0817_12"
    INDEX 01 00:11:65
  TRACK 13 AUDIO
    TITLE "2Q_t_0801-0817_13"
    INDEX 01 00:13:29
  TRACK 14 AUDIO
    TITLE "2Q_t_0801-0817_14"
    INDEX 01 00:13:72
  TRACK 15 AUDIO
    TITLE "2Q_t_0801-0817_15"
    INDEX 01 00:14:57
  TRACK 16 AUDIO
    TITLE "2Q_t_0801-0817_16"
    INDEX 01 00:15:37
  TRACK 17 AUDIO
    TITLE "2Q_t_0801-0817_17"
    INDEX 01 00:17:70
  TRACK 18 AUDIO
    TITLE "2Q_t_0801-0817_18"
    INDEX 01 00:18:38
  TRACK 19 AUDIO
    TITLE "2Q_t_0801-0817_19"
    INDEX 01 00:19:41
  TRACK 20 AUDIO
    TITLE "2Q_t_0801-0817_20"
    INDEX 01 00:20:13
  TRACK 21 AUDIO
    TITLE "2Q_t_0801-0817_21"
    INDEX 01 00:23:66
  TRACK 22 AUDIO
    TITLE "2Q_t_0801-0817_22"
    INDEX 01 00:24:34
  TRACK 23 AUDIO
    TITLE "2Q_t_0801-0817_23"
    INDEX 01 00:25:46
  TRACK 24 AUDIO
    TITLE "2Q_t_0801-0817_24"
    INDEX 01 00:26:18
  TRACK 25 AUDIO
    TITLE "2Q_t_0801-0817_25"
    INDEX 01 00:27:39
  TRACK 26 AUDIO
    TITLE "2Q_t_0801-0817_26"
    INDEX 01 00:28:09
  TRACK 27 AUDIO
    TITLE "2Q_t_0801-0817_27"
    INDEX 01 00:29:34
  TRACK 28 AUDIO
    TITLE "2Q_t_0801-0817_28"
    INDEX 01 00:30:09
  TRACK 29 AUDIO
    TITLE "2Q_t_0801-0817_29"
    INDEX 01 00:31:42
  TRACK 30 AUDIO
    TITLE "2Q_t_0801-0817_30"
    INDEX 01 00:32:10
  TRACK 31 AUDIO
    TITLE "2Q_t_0801-0817_31"
    INDEX 01 00:33:16
  TRACK 32 AUDIO
    TITLE "2Q_t_0801-0817_32"
    INDEX 01 00:33:72
  TRACK 33 AUDIO
    TITLE "2Q_t_0801-0817_33"
    INDEX 01 00:36:71
  TRACK 34 AUDIO
    TITLE "2Q_t_0801-0817_34"
    INDEX 01 00:37:39
  TRACK 35 AUDIO
    TITLE "2Q_t_0801-0817_35"
    INDEX 01 00:38:66
  TRACK 36 AUDIO
    TITLE "2Q_t_0801-0817_36"
    INDEX 01 00:39:36
  TRACK 37 AUDIO
    TITLE "2Q_t_0801-0817_37"
    INDEX 01 00:41:09
  TRACK 38 AUDIO
    TITLE "2Q_t_0801-0817_38"
    INDEX 01 00:41:54
  TRACK 39 AUDIO
    TITLE "2Q_t_0801-0817_39"
    INDEX 01 00:42:58
  TRACK 40 AUDIO
    TITLE "2Q_t_0801-0817_40"
    INDEX 01 00:43:30
  TRACK 41 AUDIO
    TITLE "2Q_t_0801-0817_41"
    INDEX 01 00:46:24
  TRACK 42 AUDIO
    TITLE "2Q_t_0801-0817_42"
    INDEX 01 00:46:69
  TRACK 43 AUDIO
    TITLE "2Q_t_0801-0817_43"
    INDEX 01 00:48:19
  TRACK 44 AUDIO
    TITLE "2Q_t_0801-0817_44"
    INDEX 01 00:48:72
  TRACK 45 AUDIO
    TITLE "2Q_t_0801-0817_45"
    INDEX 01 00:50:30
  TRACK 46 AUDIO
    TITLE "2Q_t_0801-0817_46"
    INDEX 01 00:50:75
  TRACK 47 AUDIO
    TITLE "2Q_t_0801-0817_47"
    INDEX 01 00:52:19
  TRACK 48 AUDIO
    TITLE "2Q_t_0801-0817_48"
    INDEX 01 00:52:64
  TRACK 49 AUDIO
    TITLE "2Q_t_0801-0817_49"
    INDEX 01 00:57:18
  TRACK 50 AUDIO
    TITLE "2Q_t_0801-0817_50"
    INDEX 01 00:57:63
  TRACK 51 AUDIO
    TITLE "2Q_t_0801-0817_51"
    INDEX 01 00:59:13
  TRACK 52 AUDIO
    TITLE "2Q_t_0801-0817_52"
    INDEX 01 00:59:58
  TRACK 53 AUDIO
    TITLE "2Q_t_0801-0817_53"
    INDEX 01 01:04:61
  TRACK 54 AUDIO
    TITLE "2Q_t_0801-0817_54"
    INDEX 01 01:05:31
  TRACK 55 AUDIO
    TITLE "2Q_t_0801-0817_55"
    INDEX 01 01:06:58
  TRACK 56 AUDIO
    TITLE "2Q_t_0801-0817_56"
    INDEX 01 01:07:30
  TRACK 57 AUDIO
    TITLE "2Q_t_0801-0817_57"
    INDEX 01 01:10:64
  TRACK 58 AUDIO
    TITLE "2Q_t_0801-0817_58"
    INDEX 01 01:11:34
  TRACK 59 AUDIO
    TITLE "2Q_t_0801-0817_59"
    INDEX 01 01:12:37
  TRACK 60 AUDIO
    TITLE "2Q_t_0801-0817_60"
    INDEX 01 01:13:09
  TRACK 61 AUDIO
    TITLE "2Q_t_0801-0817_61"
    INDEX 01 01:15:34
  TRACK 62 AUDIO
    TITLE "2Q_t_0801-0817_62"
    INDEX 01 01:16:02
  TRACK 63 AUDIO
    TITLE "2Q_t_0801-0817_63"
    INDEX 01 01:17:15
  TRACK 64 AUDIO
    TITLE "2Q_t_0801-0817_64"
    INDEX 01 01:17:60
  TRACK 65 AUDIO
    TITLE "2Q_t_0801-0817_65"
    INDEX 01 01:20:49
  TRACK 66 AUDIO
    TITLE "2Q_t_0801-0817_66"
    INDEX 01 01:21:19
  TRACK 67 AUDIO
    TITLE "2Q_t_0801-0817_67"
    INDEX 01 01:22:28
  TRACK 68 AUDIO
    TITLE "2Q_t_0801-0817_68"
    INDEX 01 01:23:02
  TRACK 69 AUDIO
    TITLE "2Q_t_0801-0817_69"
    INDEX 01 01:25:46
  TRACK 70 AUDIO
    TITLE "2Q_t_0801-0817_70"
    INDEX 01 01:26:14
  TRACK 71 AUDIO
    TITLE "2Q_t_0801-0817_71"
    INDEX 01 01:27:33
  TRACK 72 AUDIO
    TITLE "2Q_t_0801-0817_72"
    INDEX 01 01:28:05
  TRACK 73 AUDIO
    TITLE "2Q_t_0801-0817_73"
    INDEX 01 01:31:09
